<svg id="Layer_1" xmlns="http://www.w3.org/2000/svg" viewBox="0 239.8 610.2 314.2"><style>.st0{fill:#BB162B;}</style><path class="st0" d="M513.6 288.8c-55.5-27.8-129.3-43.1-207.8-43.1S153.5 261 98 288.8c-55.8 27.9-86.5 65-86.5 104.6S42.2 470.1 98 498c55.5 27.8 129.3 43.1 207.8 43.1s152.3-15.3 207.8-43.1c55.8-27.9 86.5-65 86.5-104.6-.1-39.6-30.8-76.8-86.5-104.6zm52 104.6c0 71.2-116.5 129-259.8 129-143.2 0-259.8-57.9-259.8-129 0-71.2 116.6-129.1 259.8-129.1s259.8 57.9 259.8 129.1z"/><path class="st0" d="M323.4 318.1h-46.2c-.5 0-.5.4-.5.8v7.5c0 .3 0 .8.5.8h4.7c1.7 0 3 1.3 3 3v135c0 1.8 1.4 3.2 3.2 3.2h35.3c1.8 0 3.2-1.4 3.2-3.2V321.3c0-1.8-1.4-3.2-3.2-3.2zM499.8 464.4l-48.3-144.2c-.7-1.9-2.6-2.1-4.2-2.1h-55.4c-.4 0-.8.4-.8.8v7.5c0 .4.4.8.8.8h4.1c1.8 0 2.9 1 2.9 2.6 0 .5-.1 1.1-.3 1.7l-44.5 133c-.3.9-.1 1.9.5 2.7.6.7 1.4 1.1 2.3 1.1h34.7c1.7 0 3.5-1.3 4.2-3.1l29.6-93.2s.3-1.3 1.4-1.3 1.4 1.3 1.4 1.3l29.9 93.2c.7 1.8 2.5 3.1 4.2 3.1H497c1.2 0 1.9-.6 2.3-1.1.7-1 .7-2.1.5-2.8zM257.2 463.3c-.1-.2-51.2-72.4-51.7-73.1-.5-.7-.7-1-.7-1.7 0-.6.3-1.2.6-1.9l.1-.1 43.2-63.9c.5-.9.5-2.1 0-3-.5-1-1.5-1.5-2.5-1.5h-38.7c-1.8 0-4.2 1.5-5.5 3.4l-33.7 47.6c-1 1.6-2.1 1.7-2.3 1.7-.9 0-1.6-.6-1.6-1.6v-47.9c0-1.8-1.4-3.2-3.1-3.2H116c-.4 0-.8.4-.8.8v7.5c0 .4.4.8.8.8h4.8c1.7 0 3 1.3 3 3v135c0 1.8 1.4 3.2 3.1 3.2h34.4c1.7 0 3.1-1.4 3.1-3.2v-56.8c0-1.3.6-1.9 1.6-1.9 1.2 0 1.7.8 2.2 1.4 0 .1.1.1.1.2l40.5 56.8c1.3 2 3.7 3.5 5.5 3.5H255c1 0 2-.7 2.5-1.6.6-1.2.4-2.4-.3-3.5z"/></svg>